<svg xmlns="http://www.w3.org/2000/svg" width="800" height="600" viewBox="0 0 800 600">
  <defs>
    <linearGradient id="bg" x1="0" y1="0" x2="800" y2="600" gradientUnits="userSpaceOnUse">
      <stop offset="0%" stop-color="#0D1B2A"/>
      <stop offset="100%" stop-color="#132236"/>
    </linearGradient>
    <linearGradient id="cyan" x1="0" y1="0" x2="1" y2="1">
      <stop offset="0%" stop-color="#00D2FF"/>
      <stop offset="100%" stop-color="#00A8CC"/>
    </linearGradient>
  </defs>
  <rect width="800" height="600" fill="url(#bg)"/>
  <rect x="120" y="80" width="560" height="440" rx="28" fill="#08101C" stroke="#1E3A52" stroke-width="3"/>
  <rect x="160" y="120" width="220" height="28" rx="8" fill="#1E3A52"/>
  <rect x="160" y="170" width="480" height="12" rx="4" fill="#1E3A52" opacity="0.7"/>
  <rect x="160" y="200" width="420" height="12" rx="4" fill="#1E3A52" opacity="0.5"/>
  <g transform="translate(400 330)">
    <ellipse cx="0" cy="0" rx="180" ry="70" fill="none" stroke="#00D2FF" stroke-width="2" opacity="0.35"/>
    <path d="M0 -70 C-8 -72,-20 -72,-30 -68 C-42 -62,-48 -50,-48 -36 C-48 -20,-40 -6,-30 8 C-22 18,-18 30,-16 42 C-14 54,-10 64,-4 70 C0 74,4 70,8 64 C14 54,18 42,20 30 C22 18,28 8,36 -4 C46 -18,52 -32,50 -46 C48 -58,40 -66,28 -70 C18 -72,8 -72,0 -70 Z" fill="#FFFFFF" stroke="#8BA3BC" stroke-width="3"/>
    <rect x="-18" y="-42" width="14" height="52" rx="3" fill="url(#cyan)"/>
    <rect x="-18" y="-42" width="36" height="12" rx="3" fill="url(#cyan)"/>
    <rect x="-18" y="-18" width="26" height="10" rx="3" fill="url(#cyan)"/>
  </g>
  <circle cx="620" cy="150" r="48" fill="#00D2FF" opacity="0.15"/>
  <path d="M600 150 L615 165 L645 130" fill="none" stroke="#00D2FF" stroke-width="6" stroke-linecap="round" stroke-linejoin="round"/>
</svg>
