<svg xmlns="http://www.w3.org/2000/svg" width="512" height="512" viewBox="0 0 512 512">
  <defs>
    <linearGradient id="bg" x1="0" y1="0" x2="512" y2="512" gradientUnits="userSpaceOnUse">
      <stop offset="0%" stop-color="#0c1a30"/>
      <stop offset="100%" stop-color="#0a1628"/>
    </linearGradient>
  </defs>
  <rect width="512" height="512" rx="96" fill="url(#bg)"/>
  <polygon points="256,64 364.8,126.8 364.8,261.2 256,324 147.2,261.2 147.2,126.8" fill="#0f2744" stroke="#22d3ee" stroke-width="2.5"/>
  <ellipse cx="256" cy="200" rx="158" ry="48" fill="none" stroke="#22d3ee" stroke-width="2"/>
  <g transform="translate(256 200)">
    <ellipse cx="0" cy="4" rx="82" ry="28" fill="none" stroke="#22d3ee" stroke-width="2.4"/>
    <path d="M 0 -54 C -6 -55, -16 -55, -24 -52 C -32 -49, -38 -42, -39 -32 C -40 -22, -37 -12, -32 -2 C -28 6, -25 14, -23 22 C -21 30, -19 38, -16 44 C -13 50, -9 54, -6 56 C -3 55, -1 48, 0 40 C 1 48, 3 55, 6 56 C 9 54, 13 50, 16 44 C 19 38, 21 30, 23 22 C 25 14, 28 6, 32 -2 C 37 -12, 40 -22, 39 -32 C 38 -42, 32 -49, 24 -52 C 16 -55, 6 -55, 0 -54 Z" fill="#ffffff" stroke="#64748b" stroke-width="2.6" stroke-linejoin="round" stroke-linecap="round"/>
    <g transform="translate(-15,-24)">
      <rect x="0" y="0" width="11" height="42" rx="2" fill="#22d3ee"/>
      <rect x="0" y="0" width="30" height="10" rx="2" fill="#22d3ee"/>
      <rect x="0" y="16" width="22" height="9" rx="2" fill="#22d3ee"/>
    </g>
  </g>
</svg>
